PathFileType	4	(X/Y/Z)	 s05c0202.trc
DataRate	CameraRate	NumFrames	NumMarkers	Units	OrigDataRate	OrigDataStartFrame	OrigNumFrames
200	200	4	49	mm	200	751	2000
Frame#	Time	racr			lacr			c7			jug			rlel			rdr			llel			ldr			s2			lic			ric			lasi			rasi			rpsi			lpsi			rgt			lgt			rth1			rth2			rth3			rth4			rlfc			rsh1			rsh2			rsh3			rsh4			rlmal			rmmal			rcal			rtoe			rmt5			lth1			lth2			lth4			lth3			llfc			lmfc			lsh1			lsh2			lsh3			lsh4			llmal			lmmal			lcal			ltoe			lmt5			SBIKE			LBIKE			RBIKE			
		X1	Y1	Z1	X2	Y2	Z2	X3	Y3	Z3	X4	Y4	Z4	X5	Y5	Z5	X6	Y6	Z6	X7	Y7	Z7	X8	Y8	Z8	X9	Y9	Z9	X10	Y10	Z10	X11	Y11	Z11	X12	Y12	Z12	X13	Y13	Z13	X14	Y14	Z14	X15	Y15	Z15	X16	Y16	Z16	X17	Y17	Z17	X18	Y18	Z18	X19	Y19	Z19	X20	Y20	Z20	X21	Y21	Z21	X22	Y22	Z22	X23	Y23	Z23	X24	Y24	Z24	X25	Y25	Z25	X26	Y26	Z26	X27	Y27	Z27	X28	Y28	Z28	X29	Y29	Z29	X30	Y30	Z30	X31	Y31	Z31	X32	Y32	Z32	X33	Y33	Z33	X34	Y34	Z34	X35	Y35	Z35	X36	Y36	Z36	X37	Y37	Z37	X38	Y38	Z38	X39	Y39	Z39	X40	Y40	Z40	X41	Y41	Z41	X42	Y42	Z42	X43	Y43	Z43	X44	Y44	Z44	X45	Y45	Z45	X46	Y46	Z46	X47	Y47	Z47	X48	Y48	Z48	X49	Y49	Z49	
751	3.7550	496.350347	1275.370941	-144.141937	492.793778	1265.802533	-392.522176	470.923977	1351.397843	-275.728016	409.086290	1198.186024	-272.312863	494.807840	1091.841590	65.589619	664.114245	964.094219	-48.599605	462.593071	1066.972982	-612.170292	658.048575	972.515152	-470.618260	-108.115384	1208.114649	-224.659545	15.001206	1229.121248	-379.375623	54.782771	1205.344883	-97.194530	58.076143	1170.206254	-349.009024	88.101298	1142.819488	-133.806977	-63.835607	1250.279364	-182.720223	-75.417926	1263.282928	-266.348888	-6.862731	1069.783717	-80.729638	-40.085223	1142.127511	-409.888704	66.460681	970.492948	-75.014727	128.763971	907.226449	-80.776771	149.322134	821.457367	-87.480598	158.120949	924.951632	-95.157289	219.254614	689.848209	-111.622793	153.749961	602.183845	-82.146735	139.562643	515.594726	-94.511115	87.817220	447.011190	-96.705142	166.059815	507.057953	-121.525394	39.271171	317.771433	-102.949196	60.874684	340.870989	-184.504740	-35.536978	314.673433	-152.359382	218.409800	161.103908	-151.358502	118.047008	185.804859	-86.730290	78.893762	1068.913729	-430.356986	165.005952	1061.140398	-426.518942	177.490547	1091.054292	-406.536818	237.514170	1007.252278	-428.584462	361.928467	922.675138	-399.609715	350.252327	903.786850	-289.465449	292.572268	816.849953	-422.003202	274.713054	731.314990	-415.756130	214.929470	665.749000	-416.980907	303.914964	717.885480	-394.779158	166.209608	552.341906	-415.411105	196.125443	575.022566	-338.656558	104.192038	503.726308	-375.766188	398.287845	499.964902	-396.384192	289.780466	468.622226	-455.681203	-214.605334	913.775947	-268.854480	-43.577765	85.069238	-475.095080	-51.889227	80.224000	-77.611128	
752	3.7600	496.398320	1274.875837	-145.173698	491.922697	1267.035823	-393.522262	470.259609	1351.595537	-276.336631	408.805518	1198.153991	-273.664541	493.888347	1091.871366	65.338207	663.365659	963.998974	-48.700062	461.952689	1067.463920	-611.878970	657.358983	972.555364	-470.647852	-108.877075	1207.616507	-224.387148	14.080213	1228.644986	-378.930948	54.427881	1204.492701	-97.045104	57.455521	1169.841371	-349.170869	87.521267	1141.957263	-134.017836	-64.227908	1249.457495	-182.304911	-75.915117	1262.591725	-265.846721	-6.007074	1069.277501	-80.530425	-41.310389	1140.863793	-409.473767	70.196910	972.288665	-75.596898	133.802735	910.407486	-81.980574	156.302515	825.186881	-88.397540	162.615432	928.651901	-96.393009	226.892424	693.857951	-111.978819	159.763651	607.349382	-82.606301	143.121517	521.087777	-94.810967	89.673012	453.780036	-96.499108	169.066713	511.989832	-122.171272	36.591496	326.148721	-102.648207	58.649179	348.806144	-184.114677	-38.413226	325.448667	-151.751166	210.826905	164.066336	-151.468764	111.307474	191.775603	-86.779453	77.237688	1065.574788	-430.744757	163.295212	1056.606518	-427.392491	176.366504	1086.528280	-407.770972	234.977924	1001.643007	-429.452395	358.324968	915.784439	-400.398527	346.864548	897.151741	-290.475718	290.408059	807.855252	-422.854953	274.783169	721.857334	-416.182687	216.601349	654.728671	-417.157801	304.235528	709.362372	-395.010049	171.018254	541.485895	-415.226296	200.340536	564.981901	-338.585757	110.351363	491.114524	-375.443833	404.459661	496.001639	-396.801180	296.801774	461.431136	-455.875768	-214.551586	913.777364	-268.791968	-43.598619	85.027345	-475.052549	-51.881878	80.218216	-77.589386	
753	3.7650	496.357833	1274.518347	-146.014141	490.857613	1268.281467	-394.372301	469.593004	1351.902174	-276.697226	408.536022	1198.152450	-274.883549	492.932077	1091.814760	65.076804	662.606905	963.960548	-49.038530	461.410211	1068.273101	-611.706798	656.636063	972.605293	-470.733355	-109.617498	1206.607923	-223.994931	13.493435	1228.069739	-379.004192	54.050124	1203.403382	-96.942182	56.753304	1169.026917	-349.323622	87.105103	1141.257644	-134.131166	-65.352336	1248.776620	-182.815991	-76.368406	1261.396908	-265.520902	-4.911821	1068.714564	-80.100813	-42.722750	1139.179331	-409.077164	73.877723	974.170539	-76.241172	138.550080	913.494128	-82.782294	162.785993	828.820864	-88.756412	167.011532	932.282125	-97.104918	234.134783	697.776837	-112.324528	165.521702	612.357918	-83.051293	146.480531	526.682261	-95.130227	91.305260	460.835317	-96.362248	171.971519	516.649307	-122.740942	34.255275	334.563465	-102.193611	56.702024	356.978939	-183.706963	-40.943887	336.228163	-151.132547	203.480016	167.527278	-151.462413	104.831018	198.004605	-86.862200	75.561854	1061.901006	-431.117874	161.449619	1051.831392	-428.232737	175.225284	1081.889939	-408.894413	232.457471	995.972680	-430.164963	354.993703	909.074072	-401.047939	343.741742	890.501081	-291.551281	288.295046	799.001256	-423.885994	275.119765	712.765004	-416.857497	218.874734	644.096655	-417.638503	304.844085	701.009039	-395.491229	176.161902	530.870887	-415.528800	204.768748	555.300464	-338.950159	116.594536	479.018640	-375.655075	410.503428	491.289584	-396.794391	303.861098	453.891427	-455.932968	-214.517324	913.783454	-268.708539	-43.547734	85.090444	-475.092747	-51.874115	80.219529	-77.582924	
754	3.7700	496.309615	1274.308717	-146.622593	489.721564	1269.596140	-395.114117	468.961772	1352.187764	-277.089263	408.276544	1198.179541	-275.972869	492.145762	1091.626932	64.573760	661.743703	963.815831	-49.649539	460.713866	1069.211933	-611.415137	655.851725	972.641878	-470.762826	-110.442624	1205.152295	-223.662692	12.506518	1227.125096	-378.831019	53.707628	1201.992607	-96.874581	56.197808	1168.116455	-349.515675	86.759152	1140.297658	-134.319712	-65.942689	1247.457619	-182.319631	-77.027751	1259.941757	-265.127300	-3.596235	1068.057456	-79.499183	-44.184761	1137.114614	-408.680428	77.269229	976.033539	-76.833895	143.030334	916.433081	-83.237027	168.746965	832.377144	-89.108232	171.165513	935.718266	-97.281658	241.028736	701.534749	-112.710978	170.985665	617.304524	-83.444003	149.625902	532.191881	-95.288596	92.703039	467.895937	-96.218197	174.633235	521.541464	-123.107184	32.001048	343.264765	-101.544585	55.109148	364.970602	-183.204373	-43.222178	347.097450	-150.394415	196.326598	171.574515	-151.601646	98.615773	204.775176	-86.759453	73.844265	1057.998408	-431.472809	159.580632	1046.900642	-428.967843	173.816503	1077.164102	-410.333631	229.913095	990.106235	-430.676738	350.745426	901.851840	-402.759152	340.741338	884.027450	-292.476144	286.389526	790.403762	-425.006166	275.676078	703.694590	-417.795938	221.398649	633.706683	-418.433590	305.740531	693.063817	-396.406015	181.570926	520.232049	-416.131906	209.397927	545.590799	-339.405358	122.838577	467.398911	-376.195131	416.558912	485.798081	-396.616406	310.788689	445.994602	-455.976398	-214.444812	913.787072	-268.573535	-43.531140	85.051498	-475.012963	-51.861132	80.190791	-77.562293	
